<svg xmlns="http://www.w3.org/2000/svg" xmlns:xlink="http://www.w3.org/1999/xlink" viewBox="0 0 1141.79 461.64"><defs><style>.cls-1{fill:#f3953f;}.cls-2{fill:url(#linear-gradient);}.cls-3{opacity:0.24;}.cls-4{fill:url(#linear-gradient-2);}.cls-5{fill:url(#linear-gradient-3);}.cls-6{fill:#006399;}</style><linearGradient id="linear-gradient" x1="313.49" y1="6.33" x2="313.49" y2="355.6" gradientUnits="userSpaceOnUse"><stop offset="0" stop-color="#006399"/><stop offset="0.53" stop-color="#016297"/><stop offset="0.72" stop-color="#035f90"/><stop offset="0.85" stop-color="#075985"/><stop offset="0.96" stop-color="#0d5074"/><stop offset="1" stop-color="#104c6c"/></linearGradient><linearGradient id="linear-gradient-2" x1="531.84" y1="56.55" x2="531.84" y2="198.85" gradientUnits="userSpaceOnUse"><stop offset="0" stop-color="#f3953f" stop-opacity="0"/><stop offset="1" stop-color="#fff"/></linearGradient><linearGradient id="linear-gradient-3" x1="289.11" y1="56.55" x2="289.11" y2="198.85" gradientUnits="userSpaceOnUse"><stop offset="0" stop-color="#fff" stop-opacity="0"/><stop offset="1" stop-color="#fff"/></linearGradient></defs><g id="Слой_2" data-name="Слой 2"><g id="Layer_1" data-name="Layer 1"><path class="cls-1" d="M500.87,252.54H436.55V165.35h64.32a39.08,39.08,0,1,0,0-78.16H436.55V0h64.32a126.27,126.27,0,0,1,0,252.54Z"/><polygon class="cls-2" points="132.64 362.79 0 362.79 415.72 0.48 415.72 275.59 626.99 275.59 626.99 362.79 328.52 362.79 328.52 192.26 132.64 362.79"/><g class="cls-3"><path class="cls-4" d="M627.14,126.27A126.41,126.41,0,0,0,500.87,0H436.55V87.19h64.32a39.08,39.08,0,1,1,0,78.16H436.55v21.86a1136.14,1136.14,0,0,1,167.15,12.2A125.5,125.5,0,0,0,627.14,126.27Z"/><path class="cls-5" d="M415.72.48,162.5,221.17C239.66,201,325.32,189,415.72,187.41Z"/></g><polygon class="cls-6" points="1.97 460.7 12.12 460.7 30.17 418.29 48.03 460.7 58.65 460.7 30.31 395.48 1.97 460.7"/><polygon class="cls-6" points="225.24 460.7 235.39 460.7 253.44 418.29 271.3 460.7 281.92 460.7 253.58 395.48 225.24 460.7"/><polygon class="cls-6" points="695.09 460.7 705.24 460.7 723.28 418.29 741.14 460.7 751.76 460.7 723.43 395.48 695.09 460.7"/><polygon class="cls-6" points="1018.01 460.7 1028.16 460.7 1046.2 418.29 1064.07 460.7 1074.68 460.7 1046.35 395.48 1018.01 460.7"/><polygon class="cls-6" points="77.63 396.79 67.57 396.79 67.57 460.7 105.82 460.7 105.82 451.77 77.63 451.77 77.63 396.79"/><polygon class="cls-6" points="126.03 436.83 153.19 436.83 153.19 428.09 126.03 428.09 126.03 405.72 156.67 405.72 156.67 396.79 115.97 396.79 115.97 460.7 157.99 460.7 157.99 451.77 126.03 451.77 126.03 436.83"/><path class="cls-6" d="M216.35,396.79H205.73L192.94,417l-12.78-20.21H168.79s18.42,29.14,18.42,29.23l-21.9,34.68h10.62l16.64-26.32L209.2,460.7h11.38l-22.37-35.34C198.3,425.36,216.35,396.79,216.35,396.79Z"/><polygon class="cls-6" points="332.32 438.8 291.34 395.85 290.59 395.85 290.59 460.7 299.99 460.7 299.99 418.69 340.97 461.64 341.71 461.64 341.71 396.79 332.32 396.79 332.32 438.8"/><path class="cls-6" d="M373.58,396.79H355.53V460.7h18.05c21,0,33.64-13.06,33.64-31.95S394.44,396.79,373.58,396.79Zm-.56,55h-7.43v-46H373c16.54,0,23.77,9.49,23.77,23S389.56,451.77,373,451.77Z"/><path class="cls-6" d="M428.09,405.72H434c12.22,0,17.29,5.83,17.29,15.51s-5,15.6-17.29,15.6l15.88,23.87h11.94l-13-18.14c8.36-3.85,12.78-11.46,12.78-21.33,0-14.76-9.68-24.44-27.26-24.44H418V460.7h10.06Z"/><rect class="cls-6" x="473.39" y="396.79" width="10.05" height="63.91"/><polygon class="cls-6" points="539.36 438.8 498.39 395.85 497.63 395.85 497.63 460.7 507.03 460.7 507.03 418.69 548.01 461.64 548.76 461.64 548.76 396.79 539.36 396.79 539.36 438.8"/><path class="cls-6" d="M592.46,395.94c-18.32,0-33,13.92-33,32.81s14.67,32.8,33,32.8,33-13.91,33-32.8S610.79,395.94,592.46,395.94Zm0,56.49c-13.25,0-22.55-10.15-22.55-23.68s9.3-23.69,22.55-23.69S615,415.21,615,428.75,605.72,452.43,592.46,452.43Z"/><path class="cls-6" d="M669.71,396.79H653.36V460.7h10V445.57h6.3c17.48,0,27.26-9.68,27.26-24.34S687.29,396.79,669.71,396.79Zm-.37,39.85h-5.93V405.72h5.93c12.21,0,17.29,5.83,17.29,15.51S681.65,436.64,669.34,436.64Z"/><rect class="cls-6" x="760.97" y="396.79" width="10.05" height="63.91"/><path class="cls-6" d="M808.43,424.33l-4.41-2c-7-3.1-10.06-5.07-10.06-10.15,0-4.41,3-7.42,8.17-7.42,4.8,0,8,2.07,10.44,6.2l7.61-5c-4-6.76-10.06-10.06-18.23-10.06-10.53,0-17.77,6.87-17.77,16.64,0,10,6.4,14.85,15.79,19l4.42,2c5.64,2.54,10.15,4.61,10.15,10.62,0,5.17-4.51,8.36-11.28,8.36-6.58,0-11.55-3-14.47-8.64l-8.46,4.23c4.33,8.18,12.22,13.44,23,13.44,12.12,0,21.14-5.92,21.14-17.67C824.5,433.07,818.11,428.65,808.43,424.33Z"/><polygon class="cls-6" points="862.28 396.79 852.23 396.79 852.23 460.7 890.48 460.7 890.48 451.77 862.28 451.77 862.28 396.79"/><polygon class="cls-6" points="910.68 436.83 937.85 436.83 937.85 428.09 910.68 428.09 910.68 405.72 941.32 405.72 941.32 396.79 900.62 396.79 900.62 460.7 942.64 460.7 942.64 451.77 910.68 451.77 910.68 436.83"/><rect class="cls-6" x="954.67" y="396.79" width="10.05" height="63.91"/><polygon class="cls-6" points="1022.24 396.79 974.21 396.79 974.21 405.72 993.2 405.72 993.2 460.7 1003.26 460.7 1003.26 405.72 1022.24 405.72 1022.24 396.79"/><path class="cls-6" d="M1108.79,395.94c-18.32,0-33,13.92-33,32.81s14.66,32.8,33,32.8,33-13.91,33-32.8S1127.13,395.94,1108.79,395.94Zm0,56.49c-13.24,0-22.55-10.15-22.55-23.68s9.31-23.69,22.55-23.69,22.56,10.15,22.56,23.69S1122.05,452.43,1108.79,452.43Z"/><path class="cls-6" d="M1049.53,384.77c-1.94,0-3.39-2.26-7.12-2.26-3.53,0-6.18,3-6.94,8h5.8a1.8,1.8,0,0,1,1.79-1.34c2,0,3.4,2.27,7.12,2.27,3.57,0,6.24-3.08,7-8.09l-.09,0h-5.68C1050.92,384.44,1050.35,384.77,1049.53,384.77Z"/></g></g></svg>