<svg xmlns="http://www.w3.org/2000/svg" viewBox="0 0 415.75 96.54"><defs><style>.cls-1{fill:#646463;}.cls-2{fill:#010101;}</style></defs><g id="Слой_2" data-name="Слой 2"><g id="Original"><path class="cls-1" d="M224.79,92.51a5.33,5.33,0,0,1-1.83.78,10.23,10.23,0,0,1-2.2.2,7.88,7.88,0,0,1-3.71-.86,6.06,6.06,0,0,1-2.43-2.33,7.13,7.13,0,0,1,0-6.9A6.45,6.45,0,0,1,217.13,81a7.5,7.5,0,0,1,3.63-.88,8.58,8.58,0,0,1,4,.82v2.72a7.46,7.46,0,0,0-1.86-.92,6.42,6.42,0,0,0-2-.29,4.11,4.11,0,0,0-4.23,4.28,4.55,4.55,0,0,0,.53,2.17,4.27,4.27,0,0,0,1.43,1.58,3.73,3.73,0,0,0,2.07.61,7.35,7.35,0,0,0,2.07-.23,6.23,6.23,0,0,0,2-1.05Z"/><path class="cls-1" d="M240.71,86.82a7.52,7.52,0,0,1-.81,3.52,5.76,5.76,0,0,1-2.26,2.33,7.34,7.34,0,0,1-6.82,0,5.68,5.68,0,0,1-2.25-2.33,7.41,7.41,0,0,1-.82-3.52A6.81,6.81,0,0,1,229.52,82a7,7,0,0,1,9.41,0A6.81,6.81,0,0,1,240.71,86.82Zm-2.92,0a5.1,5.1,0,0,0-.93-3.19,3.46,3.46,0,0,0-5.26,0,5.94,5.94,0,0,0,0,6.38,3.46,3.46,0,0,0,5.26,0A5.1,5.1,0,0,0,237.79,86.82Z"/><path class="cls-1" d="M252.68,89.57a3.61,3.61,0,0,1-.62,2.07A4,4,0,0,1,250.42,93a5.5,5.5,0,0,1-2.34.49,17,17,0,0,1-1.88-.08,7.81,7.81,0,0,1-1.86-.4l-.27-2.77a6.61,6.61,0,0,0,1.72.77,7.34,7.34,0,0,0,2.17.31,2.05,2.05,0,0,0,1.34-.46,1.41,1.41,0,0,0,.55-1,1.31,1.31,0,0,0-.34-.91,2.9,2.9,0,0,0-1-.62l-1.72-.81a4.81,4.81,0,0,1-2-1.48,3.22,3.22,0,0,1-.59-1.93,3.52,3.52,0,0,1,1.35-2.86,5.4,5.4,0,0,1,3.43-1.06,7.78,7.78,0,0,1,1.78.24,7.23,7.23,0,0,1,1.46.5v2.61a6.29,6.29,0,0,0-1.73-1,4.61,4.61,0,0,0-1.51-.22,2.57,2.57,0,0,0-1.46.39,1.26,1.26,0,0,0-.57,1.06,1.38,1.38,0,0,0,.39,1,2.85,2.85,0,0,0,1,.65l2,.91a4.26,4.26,0,0,1,1.6,1.24A3.28,3.28,0,0,1,252.68,89.57Z"/><polygon class="cls-1" points="265.29 91 264.49 93.25 257.11 93.25 257.11 80.35 265.01 80.35 264.26 82.54 259.89 82.54 259.89 85.64 264.14 85.64 263.41 87.81 259.89 87.81 259.89 91 265.29 91"/><polygon class="cls-1" points="280.5 93.25 278.96 93.25 272.38 85.09 272.38 93.25 269.91 93.25 269.91 82.02 268.55 80.35 272.07 80.35 278.01 87.79 278.01 80.35 280.5 80.35 280.5 93.25"/><polygon class="cls-1" points="293.91 80.35 293.16 82.66 289.92 82.66 289.92 93.25 287.13 93.25 287.13 82.66 283.66 82.66 283.66 80.35 293.91 80.35"/><rect class="cls-1" x="297.03" y="80.35" width="2.78" height="12.9"/><polygon class="cls-1" points="315.73 93.25 314.19 93.25 307.61 85.09 307.61 93.25 305.14 93.25 305.14 82.02 303.78 80.35 307.3 80.35 313.24 87.79 313.24 80.35 315.73 80.35 315.73 93.25"/><path class="cls-1" d="M332.33,86.82a7.41,7.41,0,0,1-.82,3.52,5.74,5.74,0,0,1-2.25,2.33,7.34,7.34,0,0,1-6.82,0,5.76,5.76,0,0,1-2.26-2.33,7.52,7.52,0,0,1-.81-3.52A6.81,6.81,0,0,1,321.14,82a7,7,0,0,1,9.41,0A6.81,6.81,0,0,1,332.33,86.82Zm-2.91,0a5.11,5.11,0,0,0-.95-3.19,3.45,3.45,0,0,0-5.25,0,5.88,5.88,0,0,0,0,6.38,3.45,3.45,0,0,0,5.25,0A5.11,5.11,0,0,0,329.42,86.82Z"/><path class="cls-1" d="M103.25,84.77c0,4.48-3,7.54-7.69,7.54H90.42V77.23h5.14C100.28,77.23,103.25,80.33,103.25,84.77Zm-1.89,0c0-3.62-2.24-6-6.1-6h-3V90.7h3C99.1,90.7,101.36,88.32,101.36,84.77Z"/><path class="cls-1" d="M115,87.16h-8.66c.08,2.5,1.5,4,3.63,4a3.17,3.17,0,0,0,3.2-2h1.67A4.78,4.78,0,0,1,110,92.46c-3.4,0-5.33-2.41-5.33-5.73a5.33,5.33,0,0,1,5.24-5.63c3.22,0,5.12,2.33,5.12,5.46Zm-8.66-1.08h7c-.09-2.09-1.35-3.75-3.46-3.75A3.75,3.75,0,0,0,106.34,86.08Z"/><path class="cls-1" d="M116.24,89H118c.32,1.4,1.54,2.15,3.18,2.15s2.72-.69,2.72-2c0-1-.58-1.6-1.8-1.81l-2.81-.52c-1.83-.35-2.75-1.21-2.75-2.67,0-2,1.91-3.09,4.38-3.09s4.12,1.13,4.36,3.11h-1.68c-.28-1.25-1.22-1.86-2.73-1.86s-2.62.61-2.62,1.69c0,.81.52,1.31,1.68,1.53l2.81.47c1.92.35,2.9,1.4,2.9,2.95,0,2.31-2,3.47-4.49,3.47S116.56,91.23,116.24,89Z"/><path class="cls-1" d="M130.05,92.31h-1.83V82.7h-2V81.26h3.83Zm-2-14.31a1,1,0,1,1,1,1A.94.94,0,0,1,128.09,78Z"/><path class="cls-1" d="M142.61,81.26V92c0,2.84-1.93,4.46-5,4.46-2.73,0-4.64-1.27-5.15-3.36h1.89c.34,1.2,1.65,1.87,3.22,1.87a2.85,2.85,0,0,0,3.18-3.06v-4c-.5,2.85-2,4-4.06,4-2.67,0-4.58-2.39-4.58-5.43s2-5.33,4.58-5.33c2.06,0,3.58,1.15,4.1,3.8l.19-3.64Zm-1.82,5.17c0-2.18-1.4-4-3.42-4s-3.46,1.83-3.46,4,1.38,4,3.46,4S140.79,88.56,140.79,86.43Z"/><path class="cls-1" d="M154.64,85.46v6.85h-1.83V85.67c0-2-1-3.06-2.73-3.06s-2.9,1.27-2.9,3.26v6.44h-1.84v-11H147l.17,3.34c.45-2.57,1.83-3.5,3.54-3.5C153.26,81.1,154.64,82.72,154.64,85.46Z"/><path class="cls-1" d="M166.88,87.16h-8.66c.09,2.5,1.51,4,3.63,4a3.16,3.16,0,0,0,3.2-2h1.68a4.8,4.8,0,0,1-4.88,3.29c-3.39,0-5.32-2.41-5.32-5.73a5.33,5.33,0,0,1,5.24-5.63c3.22,0,5.11,2.33,5.11,5.46Zm-8.66-1.08h7c-.08-2.09-1.35-3.75-3.45-3.75A3.76,3.76,0,0,0,158.22,86.08Z"/><path class="cls-1" d="M179,76.58V92.31h-1.59l-.19-3.73c-.67,2.91-2.3,4-4.3,4-2.77,0-4.64-2.63-4.64-5.78S170.12,81,173,81c2,0,3.63,1.18,4.16,4.24V76.58Zm-1.83,10.19c0-2.28-1.39-4.26-3.54-4.26s-3.52,2-3.52,4.26S171.45,91,173.58,91,177.12,89,177.12,86.77Z"/><path class="cls-1" d="M196.54,86.77c0,3.17-1.92,5.69-4.64,5.69-2.06,0-3.65-1-4.32-3.94l-.19,3.79H185.8V76.58h1.84v8.73c.54-3.13,2.2-4.21,4.17-4.21C194.65,81.1,196.54,83.69,196.54,86.77Zm-1.85,0c0-2.24-1.4-4.2-3.5-4.2s-3.55,1.94-3.55,4.2S189,91,191.19,91,194.69,89,194.69,86.77Z"/><path class="cls-1" d="M207.85,81.26,203.6,93.54c-.71,2-1.7,3-3.67,3h-1.74V95h1.5c1.29,0,1.74-.48,2.58-2.65h-1.12l-4-11.12h1.85l3.46,10.38L206,81.26Z"/><polygon class="cls-2" points="34.92 0.75 34.92 4.14 34.27 4.89 0.66 4.89 0 4.14 0 0.75 0.66 0 34.28 0 34.92 0.75"/><polygon class="cls-2" points="52.36 14.72 52.36 18.11 51.7 18.86 0.65 18.86 0 18.11 0 14.72 0.65 13.97 51.71 13.97 52.36 14.72"/><polygon class="cls-2" points="34.92 56.6 34.92 60 34.27 60.74 0.66 60.74 0 60 0 56.6 0.66 55.86 34.28 55.86 34.92 56.6"/><polygon class="cls-2" points="52.36 42.64 52.36 46.03 51.7 46.78 0.65 46.78 0 46.03 0 42.64 0.65 41.9 51.71 41.9 52.36 42.64"/><polygon class="cls-2" points="59.31 28.68 59.31 32.07 58.66 32.82 0.65 32.82 0 32.07 0 28.68 0.65 27.93 58.67 27.93 59.31 28.68"/><polygon class="cls-2" points="259.58 54.58 258.71 53.59 258.71 15.17 244.32 15.17 243.41 14.13 243.45 7.45 244.32 6.52 282.43 6.52 283.3 7.51 283.3 14.18 282.43 15.17 268.04 15.17 268.04 53.66 267.18 54.58 259.58 54.58"/><path class="cls-2" d="M91.77,54.58l-.87-1V7.51l.87-1H109c14.77,0,25.49,10,25.49,23.89v.14c0,13.92-10.72,24-25.49,24Zm8.37-8.51H109c9.47,0,15.83-6.18,15.83-15.39v-.12C124.78,21.42,118.27,15,109,15h-8.81Z"/><polygon class="cls-2" points="227.23 54.58 211.01 33.91 203.87 40.8 203.87 53.59 203 54.58 195.48 54.58 194.57 53.55 194.61 7.51 195.48 6.53 203 6.53 203.87 7.52 203.87 29.49 226.7 6.53 238.33 6.53 238.33 7.75 217.51 27.77 238.37 53.66 238.33 54.58 227.23 54.58"/><path class="cls-2" d="M313.06,55.39C298.78,55.39,288,44.77,288,30.68v-.12A24.75,24.75,0,0,1,313.19,5.71c14.27,0,25,10.62,25,24.71v.14a24.74,24.74,0,0,1-25.17,24.83m0-41.08c-8.77,0-15.38,6.93-15.38,16.11v.14c0,9.21,6.66,16.16,15.51,16.16s15.38-6.89,15.38-16v-.12c0-9.26-6.67-16.25-15.51-16.25"/><polygon class="cls-2" points="383.94 54.58 358.75 21.98 358.75 53.59 357.88 54.58 350.5 54.58 349.59 53.55 349.63 7.45 350.5 6.52 358.05 6.52 382.51 38.18 382.51 7.51 383.38 6.52 390.77 6.52 391.64 7.51 391.64 53.59 390.77 54.58 383.94 54.58"/><polygon class="cls-2" points="161.65 34.72 160.79 33.74 160.79 27.3 161.65 26.32 174.01 26.32 174.88 27.3 174.88 33.74 174.01 34.72 161.65 34.72"/><polygon class="cls-2" points="146.53 54.58 145.65 53.59 145.65 7.51 146.52 6.53 181.07 6.53 181.94 7.52 181.94 13.92 181.07 14.91 154.89 14.91 154.89 46.19 181.32 46.19 182.19 47.19 182.19 53.59 181.32 54.58 146.53 54.58"/><path class="cls-2" d="M415.75,12.65a6.13,6.13,0,1,1-6.13-6.13A6.1,6.1,0,0,1,415.75,12.65Zm-.77,0a5.36,5.36,0,1,0-10.72,0,5.36,5.36,0,0,0,10.72,0Zm-2.81,3.14h-.85L410,13.24h-1.62v2.55h-.76V9.5h2.21a2,2,0,0,1,2.13,1.87,1.85,1.85,0,0,1-1.19,1.7Zm-3.83-3.32h1.45c.94,0,1.36-.42,1.36-1.1s-.42-1.11-1.36-1.11h-1.45Z"/></g></g></svg>