<svg xmlns="http://www.w3.org/2000/svg" viewBox="0 0 441.14 108.81"><defs><style>.cls-1{fill:#1d1d1b;}.cls-2{fill:#ff4438;}.cls-3{fill:#655f62;}</style></defs><g id="Слой_2" data-name="Слой 2"><g id="original"><path class="cls-1" d="M325.7,42c0,14.65-10.62,25.28-25.17,25.27-14.4,0-25.17-10.83-25.21-25.33,0-14.81,10.74-25.49,25.71-25.46C315.27,16.54,325.73,27.36,325.7,42Zm-11.08-.31a15.88,15.88,0,0,0-1.49-7.2c-2.35-5-6.26-7.84-11.87-8.07-5.95-.24-10.4,2.24-13,7.64a17.85,17.85,0,0,0-1,13A13.54,13.54,0,0,0,303.71,57C310.32,55.57,314.6,49.68,314.62,41.72Z"/><path class="cls-1" d="M340,23c6.67-8.67,22.3-8.22,28.29-1.19A18.57,18.57,0,0,1,372.88,34C373,44.2,373,66.2,373,66.2H361.74s0-19.93,0-28.95c0-.6,0-1.21,0-1.81-.59-5.95-3.73-9.17-9.11-9.37-6-.23-10.37,3.13-11.45,8.76a25.2,25.2,0,0,0-.27,4.75c0,8.11,0,26.62,0,26.62h-11.3V17.58h10.4S340,21.69,340,23Z"/><path class="cls-1" d="M157.78,9.3V0l0,.05-11,3.33c0,20.45,0,42.37,0,62.81h11.1C157.76,47.94,157.78,27.55,157.78,9.3Z"/><path class="cls-1" d="M268.35,17.6V7.85H257.16V17.6H253v9.29h4.17V66.2h11.19V26.89H275a27.75,27.75,0,0,1,4.54-6,26.8,26.8,0,0,1,4-3.27Z"/><path class="cls-1" d="M121.65,51c-.4-5.84-3.88-9.82-10.56-11.85-2.38-.72-4.86-1.12-7.28-1.73-2.62-.66-5.43-.67-7.81-2.2a4.38,4.38,0,0,1-.65-7.13c4.18-3.93,12.41-2.47,14.77,2.73,0,.09.08.15.12.23.23.47.43,1,.43,1l.46-.14,9.61-2.9a2.53,2.53,0,0,0-.16-.52c-1.46-3.79-3.62-7-7.31-8.92-7.48-3.88-15-3.57-22.44.09-5.39,2.65-8.34,8.41-7.64,14.74.59,5.43,4.39,9.39,10.45,10.81,4.26,1,8.58,1.81,12.81,2.93,3,.82,4.42,2.52,4.46,4.75,0,2.47-1.67,4.59-4.56,5.54a14.3,14.3,0,0,1-4.26.74H102c-.28,0-.56,0-.84,0H101l-.54-.07c-4.33-.61-7-3.64-8.67-6.33h0l-9.83,3A17.45,17.45,0,0,0,92,65.93a26.6,26.6,0,0,0,20.77-.44C119.06,62.84,122.09,57.55,121.65,51Z"/><path class="cls-1" d="M251.77,51c-.4-5.84-3.88-9.82-10.56-11.85-2.38-.72-4.86-1.12-7.28-1.73-2.62-.66-5.43-.67-7.81-2.2a4.38,4.38,0,0,1-.65-7.13c4.18-3.93,12.41-2.47,14.77,2.73,0,.09.08.15.12.23.23.47.43,1,.43,1l.46-.14,9.61-2.9a2.53,2.53,0,0,0-.16-.52c-1.46-3.79-3.62-7-7.31-8.92-7.48-3.88-15-3.57-22.44.09-5.39,2.65-8.34,8.41-7.65,14.74.6,5.43,4.4,9.39,10.46,10.81,4.26,1,8.58,1.81,12.8,2.93,3.05.82,4.43,2.52,4.47,4.75,0,2.47-1.67,4.59-4.56,5.54a14.3,14.3,0,0,1-4.26.74h-.06c-.28,0-.56,0-.84,0h-.16l-.54-.07c-4.33-.61-7-3.64-8.67-6.33h0l-9.83,3a17.45,17.45,0,0,0,10,10.21,26.6,26.6,0,0,0,20.77-.44C249.18,62.84,252.21,57.55,251.77,51Z"/><path class="cls-1" d="M209.6,34.78c-4.68-19.84-26.81-22.53-38.24-13.09-8.56,7.07-11.58,20.89-6.74,31.57,4.24,9.38,11.83,14,22,14,9.11,0,16.12-3.73,20.69-11.54l0,0-9.83-3v0s-.66.58-1.24,1.13a13.33,13.33,0,0,1-22.36-6.15c-.66-2.46-.51-2.53-.51-2.53,10.9,0,24.24,0,35.15,0h1.41A31.16,31.16,0,0,0,209.6,34.78Zm-10.44,2c-3.7-.07-9.09,0-12.8,0s-9.07,0-12.77,0a4.84,4.84,0,0,1,.33-1.67,12.76,12.76,0,0,1,12.86-9.44A12.1,12.1,0,0,1,198.88,35,6.51,6.51,0,0,1,199.16,36.74Z"/><path class="cls-1" d="M424.73,34.78c-4.68-19.84-26.81-22.53-38.24-13.09-8.56,7.07-11.58,20.89-6.74,31.57,4.24,9.38,11.83,14,22,14,9.11,0,16.12-3.73,20.69-11.54l0,0-9.83-3v0s-.66.58-1.24,1.13a13.33,13.33,0,0,1-22.36-6.15c-.66-2.46-.51-2.53-.51-2.53,10.9,0,24.24,0,35.15,0H425A31.16,31.16,0,0,0,424.73,34.78Zm-10.44,2c-3.7-.07-9.09,0-12.8,0s-9.07,0-12.77,0a4.84,4.84,0,0,1,.33-1.67,12.76,12.76,0,0,1,12.86-9.44A12.1,12.1,0,0,1,414,35,6.51,6.51,0,0,1,414.29,36.74Z"/><rect class="cls-1" x="127.43" y="26.2" width="11.22" height="39.99"/><circle class="cls-1" cx="132.94" cy="13.7" r="6.33"/><path class="cls-1" d="M441.14,24.81a6.39,6.39,0,1,1-6.39-6.39A6.36,6.36,0,0,1,441.14,24.81Zm-.8,0a5.59,5.59,0,1,0-11.18,0,5.59,5.59,0,1,0,11.18,0Zm-2.93,3.28h-.89l-1.42-2.66h-1.68v2.66h-.8V21.53h2.31a2,2,0,0,1,2.21,1.95,1.94,1.94,0,0,1-1.24,1.77Zm-4-3.46h1.51c1,0,1.41-.44,1.41-1.15s-.44-1.16-1.41-1.16h-1.51Z"/><path class="cls-2" d="M52.18,74.28A6.67,6.67,0,0,0,56,73c11.13-7.35,11.51-21.16,3.26-34.71-6.56-10.78-5.21-20.15.26-28a.5.5,0,0,0-.41-.79H.5A.5.5,0,0,0,0,10V73.78a.5.5,0,0,0,.5.5Z"/><path class="cls-3" d="M83.52,88.5h2.82l5.13,13.6h0l5.13-13.6h2.82v16.38H97.4V91.41h-.05l-4.94,13.47H90.57L85.63,91.41h0v13.47H83.52Z"/><path class="cls-3" d="M103.76,90.63a1,1,0,0,1-.36-.8,1,1,0,0,1,.36-.8,1.23,1.23,0,0,1,.78-.3,1.2,1.2,0,0,1,.79.3,1,1,0,0,1,.36.8,1,1,0,0,1-.36.8,1.2,1.2,0,0,1-.79.3A1.23,1.23,0,0,1,103.76,90.63Zm1.7,2.57v11.68h-1.84V93.2Z"/><path class="cls-3" d="M117.87,93.85a3.65,3.65,0,0,1,1.1,2.87v8.16h-1.84v-7.7a3,3,0,0,0-.61-2,2.4,2.4,0,0,0-1.93-.74,3.52,3.52,0,0,0-2.48.87,2.88,2.88,0,0,0-1,2.24v7.29h-1.83V93.2h1.83v1.39h0a4.38,4.38,0,0,1,1.52-1.22,5,5,0,0,1,2.33-.49A4.1,4.1,0,0,1,117.87,93.85Z"/><path class="cls-3" d="M129.91,102.86a3.12,3.12,0,0,0,1-1.58h1.83a5.51,5.51,0,0,1-1.79,2.83,5.18,5.18,0,0,1-3.38,1.09,5.89,5.89,0,0,1-3-.77,5.05,5.05,0,0,1-2-2.16A7.37,7.37,0,0,1,121.9,99a6.42,6.42,0,0,1,1.51-4.53,5.3,5.3,0,0,1,4.1-1.63,4.86,4.86,0,0,1,4.07,1.74,7.7,7.7,0,0,1,1.38,4.9h-9.23a4.66,4.66,0,0,0,.43,2,3.54,3.54,0,0,0,1.3,1.49,3.64,3.64,0,0,0,2.07.56A3.46,3.46,0,0,0,129.91,102.86Zm-4.34-7.92a3.46,3.46,0,0,0-1.35,1.25,3.16,3.16,0,0,0-.49,1.72h7.4a3.4,3.4,0,0,0-.45-1.72,3.18,3.18,0,0,0-1.27-1.25,3.82,3.82,0,0,0-1.9-.46A4,4,0,0,0,125.57,94.94Z"/><path class="cls-3" d="M142.07,93v1.83h0a3.49,3.49,0,0,0-.71-.07,3.29,3.29,0,0,0-2.59,1.12,4.07,4.07,0,0,0-1,2.82v6.23h-1.83V93.2h1.83v2.31h.05a5,5,0,0,1,1.27-2,2.84,2.84,0,0,1,2-.68A7.08,7.08,0,0,1,142.07,93Z"/><path class="cls-3" d="M149.63,94.48a3.86,3.86,0,0,0-2.32.53,2.41,2.41,0,0,0-.75,1.81h-1.83A3.93,3.93,0,0,1,146,93.94a5.29,5.29,0,0,1,3.62-1.06,5,5,0,0,1,3,.86,3.26,3.26,0,0,1,1.17,2.82v5.68a2,2,0,0,0,.19,1,.89.89,0,0,0,.79.31,1.69,1.69,0,0,0,.35,0v1.29a3.49,3.49,0,0,1-1.08.18,2.42,2.42,0,0,1-1.36-.33,2,2,0,0,1-.72-1.25h0a3.78,3.78,0,0,1-1.57,1.32,5.6,5.6,0,0,1-2.39.47,4.07,4.07,0,0,1-2.8-.92,3,3,0,0,1-1-2.4,3.18,3.18,0,0,1,.6-2,3.71,3.71,0,0,1,1.64-1.16,15.5,15.5,0,0,1,2.75-.72,15.65,15.65,0,0,0,1.7-.39,2,2,0,0,0,.87-.5,1.27,1.27,0,0,0,.3-.9C152,95,151.21,94.48,149.63,94.48Zm1.32,8.3a2.85,2.85,0,0,0,1.06-2.42V98.42a6.64,6.64,0,0,1-2.7.91,7.59,7.59,0,0,0-2.56.92,1.74,1.74,0,0,0-.76,1.53c0,1.21.73,1.81,2.19,1.81A4.41,4.41,0,0,0,151,102.78Z"/><path class="cls-3" d="M159.59,88.5v16.38h-1.84V88.5Z"/><path class="cls-3" d="M171.38,88.5v7h8.75v-7h2.06v16.38h-2.06V97.3h-8.75v7.58h-2.06V88.5Z"/><path class="cls-3" d="M190.57,105.84a15.75,15.75,0,0,1-.7,1.52,3.18,3.18,0,0,1-.94,1,2.71,2.71,0,0,1-1.61.44,5.08,5.08,0,0,1-1.56-.23v-1.37H186a5.45,5.45,0,0,0,.62,0,2.76,2.76,0,0,0,1-.15,1.86,1.86,0,0,0,.76-.51,2.6,2.6,0,0,0,.49-.77,2.31,2.31,0,0,0,.2-1,2.47,2.47,0,0,0-.19-.94L184.45,93.2h2.06l3.58,9.52h0l3.37-9.52h2.06Z"/><path class="cls-3" d="M199.84,88.5v6.21h0a4.17,4.17,0,0,1,3.66-1.83,5,5,0,0,1,2.67.74,5.23,5.23,0,0,1,1.9,2.14,8,8,0,0,1,0,6.55,5.16,5.16,0,0,1-1.9,2.14,4.94,4.94,0,0,1-2.67.75,4.36,4.36,0,0,1-3.66-1.77h0v1.45H198V88.5Zm3.53,15.09a3.11,3.11,0,0,0,2-.64,3.88,3.88,0,0,0,1.23-1.68,6.3,6.3,0,0,0,0-4.47,3.88,3.88,0,0,0-1.23-1.68,3.11,3.11,0,0,0-2-.64,3.07,3.07,0,0,0-2.58,1.25,6.24,6.24,0,0,0,0,6.62A3.06,3.06,0,0,0,203.37,103.59Z"/><path class="cls-3" d="M218,93v1.83H218a3.49,3.49,0,0,0-.71-.07,3.31,3.31,0,0,0-2.6,1.12,4.11,4.11,0,0,0-1,2.82v6.23h-1.83V93.2h1.83v2.31h0a5.2,5.2,0,0,1,1.27-2,2.87,2.87,0,0,1,2-.68A7.08,7.08,0,0,1,218,93Z"/><path class="cls-3" d="M221.18,90.63a1,1,0,0,1-.37-.8,1,1,0,0,1,.37-.8,1.18,1.18,0,0,1,1.57,0,1,1,0,0,1,.35.8,1,1,0,0,1-.35.8,1.18,1.18,0,0,1-1.57,0Zm1.69,2.57v11.68H221V93.2Z"/><path class="cls-3" d="M237.09,93.2v15.61h-1.83v-5.45h0a4.2,4.2,0,0,1-3.71,1.84,4.88,4.88,0,0,1-2.64-.75,5.21,5.21,0,0,1-1.89-2.14,8.12,8.12,0,0,1,0-6.55,5.27,5.27,0,0,1,1.89-2.14,5,5,0,0,1,2.64-.74,4.41,4.41,0,0,1,3.71,1.76h0V93.2Zm-2.78,9.15a6.24,6.24,0,0,0,0-6.62,3.3,3.3,0,0,0-4.54-.61,3.9,3.9,0,0,0-1.24,1.68,6.3,6.3,0,0,0,0,4.47,3.9,3.9,0,0,0,1.24,1.68,3.09,3.09,0,0,0,2,.64A3.05,3.05,0,0,0,234.31,102.35Z"/><path class="cls-3" d="M256.08,96.38a4.28,4.28,0,0,1,1.9,1.47,4.63,4.63,0,0,1,.71,2.74,4.26,4.26,0,0,1-2.59,4,7.74,7.74,0,0,1-3.32.63,8.84,8.84,0,0,1-3.52-.68,5.73,5.73,0,0,1-3.58-5.14h2.06a4.3,4.3,0,0,0,1.4,2.91,5.33,5.33,0,0,0,3.64,1.07,4.55,4.55,0,0,0,2.92-.77,2.5,2.5,0,0,0,.93-2,2.79,2.79,0,0,0-.45-1.71,3,3,0,0,0-1.41-.95,26.82,26.82,0,0,0-3-.84,17.92,17.92,0,0,1-2.7-.82,4.86,4.86,0,0,1-1.9-1.38,3.57,3.57,0,0,1-.78-2.4,3.83,3.83,0,0,1,1.46-3.14A6.51,6.51,0,0,1,252,88.18a6.65,6.65,0,0,1,4.31,1.34,5.25,5.25,0,0,1,1.87,3.84H256.1a3.77,3.77,0,0,0-1.23-2.51A4.37,4.37,0,0,0,252,90a4.79,4.79,0,0,0-2.62.6,1.88,1.88,0,0,0-.93,1.64,2.31,2.31,0,0,0,.5,1.59,2.88,2.88,0,0,0,1.24.81c.49.17,1.3.39,2.43.67A28.66,28.66,0,0,1,256.08,96.38Z"/><path class="cls-3" d="M271.71,93.2v11.68h-1.83v-1.4h0a4.21,4.21,0,0,1-1.51,1.22,5.09,5.09,0,0,1-2.34.5,4.12,4.12,0,0,1-2.82-1,3.64,3.64,0,0,1-1.1-2.87V93.2h1.84v7.69a3,3,0,0,0,.61,2,2.37,2.37,0,0,0,1.93.74,3.52,3.52,0,0,0,2.48-.87,2.88,2.88,0,0,0,.95-2.24V93.2Z"/><path class="cls-3" d="M281.56,93v1.83h-.05a3.49,3.49,0,0,0-.71-.07,3.29,3.29,0,0,0-2.59,1.12,4.07,4.07,0,0,0-1,2.82v6.23h-1.83V93.2h1.83v2.31h.05a5,5,0,0,1,1.27-2,2.84,2.84,0,0,1,2-.68A7.08,7.08,0,0,1,281.56,93Z"/><path class="cls-3" d="M288.68,90.08a1.94,1.94,0,0,0-1.23.31,1.45,1.45,0,0,0-.37,1.16V93.2h2.22v1.6h-2.22v10.08h-1.83V94.8h-1.63V93.2h1.63V91.37A3.09,3.09,0,0,1,286,89a2.87,2.87,0,0,1,2-.66,6.13,6.13,0,0,1,1.31.13v1.61A5,5,0,0,0,288.68,90.08Z"/><path class="cls-3" d="M295.53,94.48a3.86,3.86,0,0,0-2.32.53,2.41,2.41,0,0,0-.75,1.81h-1.83a4,4,0,0,1,1.28-2.88,5.29,5.29,0,0,1,3.62-1.06,5,5,0,0,1,3,.86,3.26,3.26,0,0,1,1.17,2.82v5.68a2,2,0,0,0,.2,1,.88.88,0,0,0,.79.31,1.65,1.65,0,0,0,.34,0v1.29A3.49,3.49,0,0,1,300,105a2.42,2.42,0,0,1-1.36-.33,2,2,0,0,1-.72-1.25h-.05a3.78,3.78,0,0,1-1.57,1.32,5.6,5.6,0,0,1-2.39.47,4.09,4.09,0,0,1-2.8-.92,3,3,0,0,1-1-2.4,3.17,3.17,0,0,1,.59-2,3.71,3.71,0,0,1,1.64-1.16,15.41,15.41,0,0,1,2.76-.72,15.94,15.94,0,0,0,1.69-.39,2,2,0,0,0,.87-.5,1.27,1.27,0,0,0,.3-.9C297.91,95,297.12,94.48,295.53,94.48Zm1.33,8.3a2.87,2.87,0,0,0,1.05-2.42V98.42a6.64,6.64,0,0,1-2.7.91,7.77,7.77,0,0,0-2.56.92,1.74,1.74,0,0,0-.76,1.53c0,1.21.73,1.81,2.19,1.81A4.46,4.46,0,0,0,296.86,102.78Z"/><path class="cls-3" d="M310.18,95.37a3.07,3.07,0,0,0-2.4-.89,3.3,3.3,0,0,0-2.88,1.35,5.88,5.88,0,0,0,0,6.41,3.3,3.3,0,0,0,2.88,1.35,3,3,0,0,0,2.41-.89,3.51,3.51,0,0,0,.88-2.13h1.84a4.72,4.72,0,0,1-.76,2.38,4.83,4.83,0,0,1-1.82,1.65,5.36,5.36,0,0,1-2.55.6,5.64,5.64,0,0,1-3-.78,5.29,5.29,0,0,1-2-2.18,7.69,7.69,0,0,1,0-6.41,5.21,5.21,0,0,1,2-2.17,5.64,5.64,0,0,1,3-.78,5.36,5.36,0,0,1,2.53.58,4.71,4.71,0,0,1,1.78,1.62,5.12,5.12,0,0,1,.82,2.33h-1.84A3.37,3.37,0,0,0,310.18,95.37Z"/><path class="cls-3" d="M323.16,102.86a3.15,3.15,0,0,0,1-1.58H326a5.46,5.46,0,0,1-1.8,2.83,5.16,5.16,0,0,1-3.38,1.09,5.83,5.83,0,0,1-3-.77,5.05,5.05,0,0,1-2-2.16,7.24,7.24,0,0,1-.69-3.23,6.42,6.42,0,0,1,1.51-4.53,5.32,5.32,0,0,1,4.1-1.63,4.89,4.89,0,0,1,4.08,1.74,7.76,7.76,0,0,1,1.37,4.9H317a4.67,4.67,0,0,0,.44,2,3.52,3.52,0,0,0,1.29,1.49,3.64,3.64,0,0,0,2.07.56A3.44,3.44,0,0,0,323.16,102.86Zm-4.33-7.92a3.33,3.33,0,0,0-1.35,1.25,3.17,3.17,0,0,0-.5,1.72h7.4a3.4,3.4,0,0,0-.45-1.72,3.18,3.18,0,0,0-1.27-1.25,3.79,3.79,0,0,0-1.9-.46A4,4,0,0,0,318.83,94.94Z"/><path class="cls-3" d="M335.24,98.32a3.91,3.91,0,0,1,2.12,1.17,3.21,3.21,0,0,1,.73,2.18,3,3,0,0,1-.59,1.85,3.77,3.77,0,0,1-1.64,1.24,6.07,6.07,0,0,1-2.37.44,5.9,5.9,0,0,1-3.91-1.13,4.05,4.05,0,0,1-1.42-3.09H330a3,3,0,0,0,.81,1.91,3.83,3.83,0,0,0,2.69.7,3.2,3.2,0,0,0,2.07-.56,1.58,1.58,0,0,0,.7-1.25,1.61,1.61,0,0,0-.33-1.07,2,2,0,0,0-.84-.59,11,11,0,0,0-1.39-.4l-.64-.13-.67-.16a13.8,13.8,0,0,1-1.94-.54,3.07,3.07,0,0,1-1.3-.93,2.64,2.64,0,0,1-.53-1.76,2.85,2.85,0,0,1,.52-1.67,3.58,3.58,0,0,1,1.52-1.21,5.8,5.8,0,0,1,2.33-.44,4.92,4.92,0,0,1,3.3,1,3.79,3.79,0,0,1,1.35,2.63H335.8A2.38,2.38,0,0,0,333,94.48a3.33,3.33,0,0,0-1.88.44,1.31,1.31,0,0,0-.66,1.14,1.14,1.14,0,0,0,.32.87,2,2,0,0,0,.81.48c.33.11.79.23,1.39.37l.68.16C333.79,98,334.32,98.09,335.24,98.32Z"/></g></g></svg>