<svg xmlns="http://www.w3.org/2000/svg" viewBox="0 0 479.52 439.56"><defs><style>.cls-1{fill:#0f4d6c;}</style></defs><g id="Слой_2" data-name="Слой 2"><g id="Layer_1" data-name="Layer 1"><g id="Group_727" data-name="Group 727"><path id="Path_368" data-name="Path 368" class="cls-1" d="M92.57,335.67H83.24A3.32,3.32,0,0,0,79.92,339v9.34a3.32,3.32,0,0,0,3.32,3.32h9.34a3.33,3.33,0,0,0,3.33-3.32V339a3.33,3.33,0,0,0-3.33-3.32"/><path id="Path_369" data-name="Path 369" class="cls-1" d="M92.57,263.74H83.24a3.32,3.32,0,0,0-3.32,3.32v49.3a3.33,3.33,0,0,0,3.32,3.33h9.34a3.33,3.33,0,0,0,3.33-3.33v-49.3a3.33,3.33,0,0,0-3.33-3.32"/><path id="Path_370" data-name="Path 370" class="cls-1" d="M211.12,151.83h9.33a3.33,3.33,0,0,0,3.33-3.33v-9.31a3.33,3.33,0,0,0-3.33-3.33h-9.33a3.33,3.33,0,0,0-3.33,3.33v9.34a3.33,3.33,0,0,0,3.33,3.32"/><path id="Path_371" data-name="Path 371" class="cls-1" d="M179.15,151.83h9.34a3.33,3.33,0,0,0,3.32-3.33v-9.31a3.33,3.33,0,0,0-3.32-3.33h-9.34a3.33,3.33,0,0,0-3.33,3.33v9.34a3.33,3.33,0,0,0,3.33,3.32"/><path id="Path_372" data-name="Path 372" class="cls-1" d="M410.92,32h9.34a3.33,3.33,0,0,0,3.32-3.33V3.33A3.33,3.33,0,0,0,420.26,0h-9.35a3.33,3.33,0,0,0-3.32,3.33V28.64A3.33,3.33,0,0,0,410.91,32"/><path id="Path_373" data-name="Path 373" class="cls-1" d="M410.92,95.91h9.34a3.33,3.33,0,0,0,3.32-3.33V67.26a3.32,3.32,0,0,0-3.32-3.32h-9.34a3.33,3.33,0,0,0-3.33,3.32V92.58a3.33,3.33,0,0,0,3.33,3.33"/><path id="Path_374" data-name="Path 374" class="cls-1" d="M434.9,55.94h17.34a3.33,3.33,0,0,0,3.33-3.32V43.28A3.33,3.33,0,0,0,452.24,40H434.9a3.33,3.33,0,0,0-3.33,3.32v9.34A3.33,3.33,0,0,0,434.9,56"/><path id="Path_375" data-name="Path 375" class="cls-1" d="M379,55.94H396.3a3.32,3.32,0,0,0,3.32-3.32V43.28A3.32,3.32,0,0,0,396.3,40H379a3.32,3.32,0,0,0-3.32,3.32v9.34A3.32,3.32,0,0,0,379,56"/><path id="Path_376" data-name="Path 376" class="cls-1" d="M476.2,343.66H359.64V247.75h32a16,16,0,0,0,16-16h0v-16a16,16,0,0,0-16-16h-32v-16a24,24,0,0,0,23.95-24c0-.38,0-.75,0-1.13a24.39,24.39,0,0,0-23.86-22.73,54.66,54.66,0,0,0-49.77-32h-62.2v-16a24,24,0,0,0-24-24H183.81a24,24,0,0,0-24,24v16H97.55a54.67,54.67,0,0,0-49.75,32A24,24,0,0,0,24,160q0,.51,0,1a24.4,24.4,0,0,0,23.92,22.73v16H16a16,16,0,0,0-16,16v16a16,16,0,0,0,16,16H48V391.61a48,48,0,0,0,48,47.95H413.7a23.84,23.84,0,0,0,21.44-13.26l10.73-21.44,11.27-8.47a56.19,56.19,0,0,0,22.38-44.75V347a3.33,3.33,0,0,0-3.33-3.33M388.27,215.78a3.33,3.33,0,0,1,3.33,3.32v9.34a3.32,3.32,0,0,1-3.33,3.32H359.64v-16ZM40,159.05a8.24,8.24,0,0,1,8.31-7.18H156.52a3.33,3.33,0,0,0,3.32-3.33v-9.35a3.33,3.33,0,0,0-3.32-3.33H66.2a38.73,38.73,0,0,1,31.36-16h114.9a3.33,3.33,0,0,0,3.32-3.33v-9.32a3.32,3.32,0,0,0-3.32-3.32H175.84v-16a8,8,0,0,1,8-8h40a8,8,0,0,1,8,8v32H310a38.74,38.74,0,0,1,31.37,16H283.05a3.33,3.33,0,0,0-3.33,3.33v9.3a3.33,3.33,0,0,0,3.33,3.33h76.59a8,8,0,0,1,8,8,6.79,6.79,0,0,1,0,.78,8.23,8.23,0,0,1-8.3,7.18H48a8,8,0,0,1-8-8,6.79,6.79,0,0,1,0-.78M19.31,231.77A3.32,3.32,0,0,1,16,228.45v-9.34a3.33,3.33,0,0,1,3.32-3.33H48v16ZM63.94,391.61V183.79H343.66V343.66H195.14a3.33,3.33,0,0,0-3.33,3.32v4.67a56.18,56.18,0,0,0,22.38,44.75l11.29,8.46,9.36,18.72H95.91a32,32,0,0,1-32-32m397.6-27.56a40.09,40.09,0,0,1-14,19.57l-13.67,10.25a3.29,3.29,0,0,0-1,1.19l-12.06,24.12a8,8,0,0,1-7.18,4.42h-156a7.92,7.92,0,0,1-7.17-4.42l-12-24.14a3.46,3.46,0,0,0-1-1.2l-13.67-10.22a40.15,40.15,0,0,1-14-19.57,3.35,3.35,0,0,1,2.09-4.24,3.72,3.72,0,0,1,1-.18H458.39a3.34,3.34,0,0,1,3.33,3.36,3.19,3.19,0,0,1-.18,1.06"/><path id="Path_377" data-name="Path 377" class="cls-1" d="M412.25,375.63h-9.33a3.32,3.32,0,0,0-3.33,3.32v9.34a3.33,3.33,0,0,0,3.33,3.32h9.33a3.33,3.33,0,0,0,3.33-3.32V379a3.32,3.32,0,0,0-3.33-3.32"/><path id="Path_378" data-name="Path 378" class="cls-1" d="M380.3,375.63H307A3.32,3.32,0,0,0,303.7,379v9.34a3.32,3.32,0,0,0,3.32,3.32H380.3a3.33,3.33,0,0,0,3.33-3.32V379a3.32,3.32,0,0,0-3.33-3.32"/></g></g></g></svg>