<svg xmlns="http://www.w3.org/2000/svg" viewBox="0 0 456.16 439.57"><defs><style>.cls-1{fill:#fff;}.cls-2{fill:#0f4d6c;}</style></defs><g id="Слой_2" data-name="Слой 2"><g id="Layer_1" data-name="Layer 1"><g id="Group_722" data-name="Group 722"><g id="Group_721" data-name="Group 721"><path id="Path_351" data-name="Path 351" class="cls-1" d="M46.31,82.94H36.63a3.45,3.45,0,0,0-3.45,3.45v9.69a3.44,3.44,0,0,0,3.45,3.45h9.68a3.44,3.44,0,0,0,3.45-3.45V86.39a3.45,3.45,0,0,0-3.45-3.45"/><path id="Path_352" data-name="Path 352" class="cls-1" d="M46.31,33.18H36.63a3.45,3.45,0,0,0-3.45,3.45V62.91a3.45,3.45,0,0,0,3.45,3.46h9.68a3.45,3.45,0,0,0,3.45-3.46V36.63a3.45,3.45,0,0,0-3.45-3.45"/><path id="Path_353" data-name="Path 353" class="cls-1" d="M141,389.8H91.23V132.7h58.08a16.61,16.61,0,0,0,16.59-16.58V16.59A16.61,16.61,0,0,0,149.31,0H16.59A16.61,16.61,0,0,0,0,16.59v99.53A16.6,16.6,0,0,0,16.59,132.7H74.66V389.8H24.88A16.6,16.6,0,0,0,8.3,406.39V423a16.6,16.6,0,0,0,16.58,16.6H141A16.61,16.61,0,0,0,157.58,423v-16.6A16.61,16.61,0,0,0,141,389.81M16.59,112.66V20A3.45,3.45,0,0,1,20,16.59h125.8A3.45,3.45,0,0,1,149.31,20v92.64a3.45,3.45,0,0,1-3.45,3.46H20a3.45,3.45,0,0,1-3.45-3.46M141,419.53a3.45,3.45,0,0,1-3.45,3.45H28.33a3.44,3.44,0,0,1-3.45-3.45v-9.69a3.44,3.44,0,0,1,3.44-3.45H137.54a3.45,3.45,0,0,1,3.45,3.45h0Z"/><path id="Path_354" data-name="Path 354" class="cls-1" d="M443.12,283.37a102.86,102.86,0,0,0,13-51.15c0-68.6-67-124.4-149.31-124.4s-149.31,55.8-149.31,124.4a110.06,110.06,0,0,0,11,46.63,38.5,38.5,0,0,0-16.66,47.41L170.56,374a24.7,24.7,0,0,0,11.85,13.1V423A16.6,16.6,0,0,0,199,439.55h10a16.53,16.53,0,0,0,16.12-12.71l8.88-37H371.27l8.88,37a16.53,16.53,0,0,0,16.12,12.72h10.05A16.63,16.63,0,0,0,422.91,423V387.09A24.82,24.82,0,0,0,434.76,374l18.66-47.72A38.45,38.45,0,0,0,443,283.37m-268.9-51.14c0-59.45,59.53-107.82,132.7-107.82s132.69,48.38,132.69,107.82a86.84,86.84,0,0,1-10.94,43.07,38.31,38.31,0,0,0-42.55,15H219.36a38.61,38.61,0,0,0-31.54-16.58c-1.09,0-2.16.05-3.22.14a93.68,93.68,0,0,1-10.46-41.61M379.23,309,378,323.45H343.5a3.46,3.46,0,0,0-3.45,3.45h0v9.67A3.46,3.46,0,0,0,343.5,340h33.15l-2.76,33.17H231.56L228.79,340H320a3.45,3.45,0,0,0,3.45-3.45h0V326.9a3.45,3.45,0,0,0-3.45-3.45H227.43L226.23,309c-.06-.73-.18-1.44-.28-2.15H379.54c-.1.71-.23,1.42-.29,2.15M167.38,320.21a21.94,21.94,0,1,1,42.3-9.81l5.23,62.82H193.78a8.26,8.26,0,0,1-7.73-5.27ZM199,423V389.8h18l-8,33.18Zm197.3,0-7.95-33.18h18V423ZM438,320.25,419.38,368a8.25,8.25,0,0,1-7.77,5.28H390.52l5.23-62.81a21.94,21.94,0,1,1,42.3,9.82"/><path id="Path_355" data-name="Path 355" class="cls-1" d="M302,257.1h9.69a3.45,3.45,0,0,0,3.45-3.45h0V244a3.44,3.44,0,0,0-3.45-3.45H302a3.45,3.45,0,0,0-3.45,3.45h0v9.69A3.46,3.46,0,0,0,302,257.1h0"/><path id="Path_356" data-name="Path 356" class="cls-1" d="M302,174.17h9.69a3.45,3.45,0,0,0,3.45-3.45h0V161a3.45,3.45,0,0,0-3.45-3.46H302a3.46,3.46,0,0,0-3.45,3.46h0v9.68a3.46,3.46,0,0,0,3.45,3.46h0"/><path id="Path_357" data-name="Path 357" class="cls-1" d="M235.67,215.64h9.69a3.45,3.45,0,0,0,3.45-3.46h0V202.5a3.45,3.45,0,0,0-3.45-3.46h-9.69a3.46,3.46,0,0,0-3.45,3.46h0v9.68a3.46,3.46,0,0,0,3.45,3.46h0"/><path id="Path_358" data-name="Path 358" class="cls-1" d="M368.37,215.64h9.69a3.46,3.46,0,0,0,3.45-3.46h0V202.5a3.45,3.45,0,0,0-3.45-3.46h-9.69a3.45,3.45,0,0,0-3.45,3.46h0v9.68a3.45,3.45,0,0,0,3.45,3.46h0"/></g></g><g id="Group_722-2" data-name="Group 722"><g id="Group_721-2" data-name="Group 721"><path id="Path_351-2" data-name="Path 351" class="cls-2" d="M46.31,82.94H36.63a3.45,3.45,0,0,0-3.45,3.45v9.69a3.44,3.44,0,0,0,3.45,3.45h9.68a3.44,3.44,0,0,0,3.45-3.45V86.39a3.45,3.45,0,0,0-3.45-3.45"/><path id="Path_352-2" data-name="Path 352" class="cls-2" d="M46.31,33.18H36.63a3.45,3.45,0,0,0-3.45,3.45V62.91a3.45,3.45,0,0,0,3.45,3.46h9.68a3.45,3.45,0,0,0,3.45-3.46V36.63a3.45,3.45,0,0,0-3.45-3.45"/><path id="Path_353-2" data-name="Path 353" class="cls-2" d="M141,389.8H91.23V132.7h58.08a16.61,16.61,0,0,0,16.59-16.58V16.59A16.61,16.61,0,0,0,149.31,0H16.59A16.61,16.61,0,0,0,0,16.59v99.53A16.6,16.6,0,0,0,16.59,132.7H74.66V389.8H24.88A16.6,16.6,0,0,0,8.3,406.39V423a16.6,16.6,0,0,0,16.58,16.6H141A16.61,16.61,0,0,0,157.58,423v-16.6A16.61,16.61,0,0,0,141,389.81M16.59,112.66V20A3.45,3.45,0,0,1,20,16.59h125.8A3.45,3.45,0,0,1,149.31,20v92.64a3.45,3.45,0,0,1-3.45,3.46H20a3.45,3.45,0,0,1-3.45-3.46M141,419.53a3.45,3.45,0,0,1-3.45,3.45H28.33a3.44,3.44,0,0,1-3.45-3.45v-9.69a3.44,3.44,0,0,1,3.44-3.45H137.54a3.45,3.45,0,0,1,3.45,3.45h0Z"/><path id="Path_354-2" data-name="Path 354" class="cls-2" d="M443.12,283.37a102.86,102.86,0,0,0,13-51.15c0-68.6-67-124.4-149.31-124.4s-149.31,55.8-149.31,124.4a110.06,110.06,0,0,0,11,46.63,38.5,38.5,0,0,0-16.66,47.41L170.56,374a24.7,24.7,0,0,0,11.85,13.1V423A16.6,16.6,0,0,0,199,439.55h10a16.53,16.53,0,0,0,16.12-12.71l8.88-37H371.27l8.88,37a16.53,16.53,0,0,0,16.12,12.72h10.05A16.63,16.63,0,0,0,422.91,423V387.09A24.82,24.82,0,0,0,434.76,374l18.66-47.72A38.45,38.45,0,0,0,443,283.37m-268.9-51.14c0-59.45,59.53-107.82,132.7-107.82s132.69,48.38,132.69,107.82a86.84,86.84,0,0,1-10.94,43.07,38.31,38.31,0,0,0-42.55,15H219.36a38.61,38.61,0,0,0-31.54-16.58c-1.09,0-2.16.05-3.22.14a93.68,93.68,0,0,1-10.46-41.61M379.23,309,378,323.45H343.5a3.46,3.46,0,0,0-3.45,3.45h0v9.67A3.46,3.46,0,0,0,343.5,340h33.15l-2.76,33.17H231.56L228.79,340H320a3.45,3.45,0,0,0,3.45-3.45h0V326.9a3.45,3.45,0,0,0-3.45-3.45H227.43L226.23,309c-.06-.73-.18-1.44-.28-2.15H379.54c-.1.71-.23,1.42-.29,2.15M167.38,320.21a21.94,21.94,0,1,1,42.3-9.81l5.23,62.82H193.78a8.26,8.26,0,0,1-7.73-5.27ZM199,423V389.8h18l-8,33.18Zm197.3,0-7.95-33.18h18V423ZM438,320.25,419.38,368a8.25,8.25,0,0,1-7.77,5.28H390.52l5.23-62.81a21.94,21.94,0,1,1,42.3,9.82"/><path id="Path_355-2" data-name="Path 355" class="cls-2" d="M302,257.1h9.69a3.45,3.45,0,0,0,3.45-3.45h0V244a3.44,3.44,0,0,0-3.45-3.45H302a3.45,3.45,0,0,0-3.45,3.45h0v9.69A3.46,3.46,0,0,0,302,257.1h0"/><path id="Path_356-2" data-name="Path 356" class="cls-2" d="M302,174.17h9.69a3.45,3.45,0,0,0,3.45-3.45h0V161a3.45,3.45,0,0,0-3.45-3.46H302a3.46,3.46,0,0,0-3.45,3.46h0v9.68a3.46,3.46,0,0,0,3.45,3.46h0"/><path id="Path_357-2" data-name="Path 357" class="cls-2" d="M235.67,215.64h9.69a3.45,3.45,0,0,0,3.45-3.46h0V202.5a3.45,3.45,0,0,0-3.45-3.46h-9.69a3.46,3.46,0,0,0-3.45,3.46h0v9.68a3.46,3.46,0,0,0,3.45,3.46h0"/><path id="Path_358-2" data-name="Path 358" class="cls-2" d="M368.37,215.64h9.69a3.46,3.46,0,0,0,3.45-3.46h0V202.5a3.45,3.45,0,0,0-3.45-3.46h-9.69a3.45,3.45,0,0,0-3.45,3.46h0v9.68a3.45,3.45,0,0,0,3.45,3.46h0"/></g></g></g></g></svg>