<svg xmlns="http://www.w3.org/2000/svg" viewBox="0 0 477.9 420.21"><defs><style>.cls-1{fill:#0f4d6c;}</style></defs><g id="Слой_2" data-name="Слой 2"><g id="Layer_1" data-name="Layer 1"><g id="Group_726" data-name="Group 726"><g id="Group_725" data-name="Group 725"><path id="Path_363" data-name="Path 363" class="cls-1" d="M235.51,403.73H157.72l-8.39-73.24a102.7,102.7,0,0,0,64.87-95.67A37.08,37.08,0,0,0,197.72,204V65.91a33,33,0,0,0-33-32.95h-24.7V16.48A16.47,16.47,0,0,0,123.59,0h-33A16.48,16.48,0,0,0,74.17,16.48V33H49.44a33,33,0,0,0-33,32.95h0V204A37,37,0,0,0,0,234.82a105.43,105.43,0,0,0,30.91,74.05,99.46,99.46,0,0,0,33.93,22.37l-8.1,72.49H11.64a3.43,3.43,0,0,0-3.43,3.42h0v9.63a3.44,3.44,0,0,0,3.43,3.43H235.51a3.43,3.43,0,0,0,3.43-3.43h0v-9.63a3.42,3.42,0,0,0-3.43-3.43h0M37.08,214.2H177.15a20.61,20.61,0,0,1,20.17,16.47H16.89A20.63,20.63,0,0,1,37.07,214.2M33,65.86A16.47,16.47,0,0,1,49.44,49.44H87.22A3.44,3.44,0,0,0,90.65,46h0V19.9a3.44,3.44,0,0,1,3.43-3.43h26.11a3.44,3.44,0,0,1,3.43,3.43V46a3.43,3.43,0,0,0,3.43,3.43h37.76a16.47,16.47,0,0,1,16.48,16.47h0V198a37.6,37.6,0,0,0-4.11-.23H37.08A37.79,37.79,0,0,0,33,198ZM80.89,335.91a91.69,91.69,0,0,0,17.8,1.78h.17l0-16.47h-.14a79.46,79.46,0,0,1-56.17-24,89.24,89.24,0,0,1-25.16-50H196.85a86.25,86.25,0,0,1-59,69.94l-6.42,2.07,9.69,84.54H73.32Z"/><path id="Path_364" data-name="Path 364" class="cls-1" d="M362.52,177.84v-9.62a3.42,3.42,0,0,0-3.43-3.43h-9.62a3.43,3.43,0,0,0-3.43,3.43h0v9.62a3.43,3.43,0,0,0,3.42,3.43h9.63a3.42,3.42,0,0,0,3.43-3.43h0"/><path id="Path_365" data-name="Path 365" class="cls-1" d="M52.87,156.55h9.62a3.44,3.44,0,0,0,3.43-3.43h0V143.5a3.43,3.43,0,0,0-3.43-3.43H52.87a3.42,3.42,0,0,0-3.43,3.43h0v9.62a3.43,3.43,0,0,0,3.43,3.43h0"/><path id="Path_366" data-name="Path 366" class="cls-1" d="M52.87,123.59h9.62a3.44,3.44,0,0,0,3.43-3.43V85.82a3.44,3.44,0,0,0-3.43-3.43H52.87a3.43,3.43,0,0,0-3.43,3.43v34.34a3.42,3.42,0,0,0,3.43,3.43"/><path id="Path_367" data-name="Path 367" class="cls-1" d="M461,179.78a24.6,24.6,0,0,0-7.85-47.95H395.48V118.78a3.43,3.43,0,0,0-3.43-3.43h-9.62a3.44,3.44,0,0,0-3.43,3.43h0v13.05H362.52V90.63a24.75,24.75,0,0,0-24.77-24.72c-.4,0-.8,0-1.19,0a25.19,25.19,0,0,0-23.47,25.41v4.09a3.42,3.42,0,0,0,3.43,3.43h9.61a3.42,3.42,0,0,0,3.43-3.43h0V90.63a8.26,8.26,0,0,1,8.26-8.24c.27,0,.53,0,.8,0A8.49,8.49,0,0,1,346,91v40.84H329.56V118.77a3.42,3.42,0,0,0-3.43-3.42h-9.62a3.43,3.43,0,0,0-3.43,3.42h0v13.06H255.41a24.59,24.59,0,0,0-7.85,47.95c3.56,33.5,33.27,61.39,73.38,71.53l-8.57,152.41H258.84a3.42,3.42,0,0,0-3.43,3.43h0v9.62a3.42,3.42,0,0,0,3.43,3.43H466.2a3.42,3.42,0,0,0,3.43-3.43h0v-9.62a3.42,3.42,0,0,0-3.43-3.42H396.29l-8.66-152.42c40.11-10.14,69.82-38,73.38-71.53m-196.62,1.48h61.74a3.43,3.43,0,0,0,3.43-3.43h0V168.2a3.43,3.43,0,0,0-3.43-3.43H255.41a8.25,8.25,0,0,1-8.23-8.27c0-.25,0-.51,0-.76a8.47,8.47,0,0,1,8.56-7.42H453.16a8.24,8.24,0,0,1,8.24,8.25,7,7,0,0,1,0,.8,8.47,8.47,0,0,1-8.56,7.42H407.15a3.43,3.43,0,0,0-3.42,3.43h0v9.63a3.43,3.43,0,0,0,3.42,3.43h37.06c-5.6,32.46-43.77,57.67-89.9,57.67s-84.3-25.21-89.89-57.67m115.4,222.46H328.91l8.4-149.36a138.31,138.31,0,0,0,34,0Z"/></g></g></g></g></svg>